<svg width="24" height="25" viewBox="0 0 24 25" fill="none" xmlns="http://www.w3.org/2000/svg">
<path fill-rule="evenodd" clip-rule="evenodd" d="M16 3.26758H8C5.23858 3.26758 3 5.50616 3 8.26758V16.2676C3 19.029 5.23858 21.2676 8 21.2676H16C18.7614 21.2676 21 19.029 21 16.2676V8.26758C21 5.50616 18.7614 3.26758 16 3.26758ZM19.25 16.2676C19.2445 18.0602 17.7926 19.5121 16 19.5176H8C6.20735 19.5121 4.75549 18.0602 4.75 16.2676V8.26758C4.75549 6.47493 6.20735 5.02307 8 5.01758H16C17.7926 5.02307 19.2445 6.47493 19.25 8.26758V16.2676ZM16.75 8.51758C17.3023 8.51758 17.75 8.06986 17.75 7.51758C17.75 6.9653 17.3023 6.51758 16.75 6.51758C16.1977 6.51758 15.75 6.9653 15.75 7.51758C15.75 8.06986 16.1977 8.51758 16.75 8.51758ZM12 7.76758C9.51472 7.76758 7.5 9.7823 7.5 12.2676C7.5 14.7529 9.51472 16.7676 12 16.7676C14.4853 16.7676 16.5 14.7529 16.5 12.2676C16.5027 11.0733 16.0294 9.92715 15.1849 9.08266C14.3404 8.23817 13.1943 7.76492 12 7.76758ZM9.25 12.2676C9.25 13.7864 10.4812 15.0176 12 15.0176C13.5188 15.0176 14.75 13.7864 14.75 12.2676C14.75 10.7488 13.5188 9.51758 12 9.51758C10.4812 9.51758 9.25 10.7488 9.25 12.2676Z" fill="white"/>
</svg>
