<svg width="24" height="25" viewBox="0 0 24 25" fill="none" xmlns="http://www.w3.org/2000/svg">
<path fill-rule="evenodd" clip-rule="evenodd" d="M4.5 3.26758C3.67157 3.26758 3 3.93915 3 4.76758V19.7676C3 20.596 3.67157 21.2676 4.5 21.2676H19.5C20.3284 21.2676 21 20.596 21 19.7676V4.76758C21 3.93915 20.3284 3.26758 19.5 3.26758H4.5ZM8.52076 7.2703C8.52639 8.22655 7.81061 8.81577 6.96123 8.81155C6.16107 8.80733 5.46357 8.1703 5.46779 7.27171C5.47201 6.42655 6.13998 5.74733 7.00764 5.76702C7.88795 5.78671 8.52639 6.43218 8.52076 7.2703ZM12.2797 10.0293H9.75971H9.7583V18.5892H12.4217V18.3895C12.4217 18.0096 12.4214 17.6296 12.4211 17.2495C12.4203 16.2357 12.4194 15.2208 12.4246 14.2073C12.426 13.9612 12.4372 13.7053 12.5005 13.4704C12.7381 12.5929 13.5271 12.0262 14.4074 12.1655C14.9727 12.254 15.3467 12.5817 15.5042 13.1147C15.6013 13.4479 15.6449 13.8065 15.6491 14.1539C15.6605 15.2015 15.6589 16.2491 15.6573 17.2968C15.6567 17.6666 15.6561 18.0366 15.6561 18.4064V18.5878H18.328V18.3825C18.328 17.9305 18.3278 17.4786 18.3275 17.0267C18.327 15.8972 18.3264 14.7677 18.3294 13.6378C18.3308 13.1273 18.276 12.6239 18.1508 12.1303C17.9638 11.3962 17.5771 10.7887 16.9485 10.35C16.5027 10.0378 16.0133 9.83668 15.4663 9.81418C15.404 9.81159 15.3412 9.8082 15.2781 9.80479C14.9984 9.78967 14.7141 9.77431 14.4467 9.82824C13.6817 9.98152 13.0096 10.3317 12.5019 10.949C12.4429 11.0198 12.3852 11.0917 12.2991 11.199L12.2797 11.2233V10.0293ZM5.68164 18.592H8.33242V10.0349H5.68164V18.592Z" fill="white"/>
</svg>
