<svg width="24" height="25" viewBox="0 0 24 25" fill="none" xmlns="http://www.w3.org/2000/svg">
<path d="M21.5931 7.22791C21.4792 6.80531 21.2566 6.41991 20.9475 6.11008C20.6383 5.80024 20.2534 5.57677 19.8311 5.46191C18.2651 5.03191 12.0001 5.02491 12.0001 5.02491C12.0001 5.02491 5.73609 5.01791 4.16909 5.42891C3.74701 5.54906 3.36291 5.77569 3.05365 6.08704C2.7444 6.3984 2.52037 6.78403 2.40309 7.20691C1.99009 8.77291 1.98609 12.0209 1.98609 12.0209C1.98609 12.0209 1.98209 15.2849 2.39209 16.8349C2.62209 17.6919 3.29709 18.3689 4.15509 18.5999C5.73709 19.0299 11.9851 19.0369 11.9851 19.0369C11.9851 19.0369 18.2501 19.0439 19.8161 18.6339C20.2386 18.5192 20.6238 18.2963 20.9337 17.9871C21.2436 17.6779 21.4675 17.2931 21.5831 16.8709C21.9971 15.3059 22.0001 12.0589 22.0001 12.0589C22.0001 12.0589 22.0201 8.79391 21.5931 7.22791ZM9.99609 15.0299L10.0011 9.02991L15.2081 12.0349L9.99609 15.0299Z" fill="white"/>
</svg>
